<svg xmlns="http://www.w3.org/2000/svg" width="1000" height="416" viewBox="0 0 1000 416" fill="none"><path d="M136.175 384.39L138.955 402.98H133.385L136.175 384.39ZM132.235 377.87L126.355 414.64H131.655L132.655 407.96H139.745L140.745 414.64H146.575L140.695 377.87H132.235Z" fill="#231F20"></path><path d="M173.335 377.87V399.88L167.385 377.87H160.155V414.64H165.345V388.02L172.545 414.64H178.475V377.87H173.335Z" fill="#231F20"></path><path d="M206.545 377.87L202.135 394.64L197.725 377.87H191.685L198.995 402.46V414.64H204.755V402.46L212.065 377.87H206.545Z" fill="#231F20"></path><path d="M224.055 405.82C224.055 411.7 227.155 415.06 232.835 415.06C238.515 415.06 241.605 411.7 241.605 405.82V386.7C241.605 380.82 238.505 377.45 232.835 377.45C227.165 377.45 224.055 380.82 224.055 386.7V405.82ZM229.825 386.33C229.825 383.7 230.995 382.71 232.825 382.71C234.655 382.71 235.815 383.7 235.815 386.33V406.18C235.815 408.81 234.665 409.82 232.825 409.82C230.985 409.82 229.825 408.81 229.825 406.18V386.33Z" fill="#231F20"></path><path d="M269.405 377.87V399.88L263.475 377.87H256.225V414.64H261.425V388.02L268.625 414.64H274.555V377.87H269.405Z" fill="#231F20"></path><path d="M289.655 377.87V414.64H305.415V409.39H295.425V398.61H303.355V393.37H295.425V383.13H305.415V377.87H289.655Z" fill="#231F20"></path><path d="M350.305 400.93V406.17C350.305 408.8 349.145 409.74 347.305 409.74C345.465 409.74 344.315 408.8 344.315 406.17V386.32C344.315 383.69 345.465 382.7 347.305 382.7C349.145 382.7 350.305 383.69 350.305 386.32V390.27H355.765V386.7C355.765 380.82 352.825 377.45 347.155 377.45C341.485 377.45 338.535 380.82 338.535 386.7V405.82C338.535 411.7 341.475 415.06 347.155 415.06C352.835 415.06 355.765 411.7 355.765 405.82V400.93H350.305Z" fill="#231F20"></path><path d="M378.525 384.39L381.305 402.98H375.735L378.525 384.39ZM374.585 377.87L368.705 414.64H374.015L375.005 407.96H382.095L383.095 414.64H388.935L383.045 377.87H374.585Z" fill="#231F20"></path><path d="M415.675 377.87V399.88L409.745 377.87H402.505V414.64H407.695V388.02L414.895 414.64H420.825V377.87H415.675Z" fill="#231F20"></path><path d="M466.305 400.93V406.17C466.305 408.8 465.145 409.74 463.315 409.74C461.485 409.74 460.315 408.8 460.315 406.17V386.32C460.315 383.69 461.465 382.7 463.315 382.7C465.165 382.7 466.305 383.69 466.305 386.32V390.27H471.775V386.7C471.775 380.82 468.825 377.45 463.155 377.45C457.485 377.45 454.535 380.82 454.535 386.7V405.82C454.535 411.7 457.485 415.06 463.155 415.06C468.825 415.06 471.775 411.7 471.775 405.82V400.93H466.305Z" fill="#231F20"></path><path d="M498.565 377.87V393.63H492.005V377.87H486.225V414.64H492.005V398.89H498.565V414.64H504.455V377.87H498.565Z" fill="#231F20"></path><path d="M527.895 384.39L530.685 402.98H525.115L527.895 384.39ZM523.965 377.87L518.065 414.64H523.375L524.375 407.96H531.465L532.455 414.64H538.285L532.405 377.87H523.955H523.965Z" fill="#231F20"></path><path d="M565.065 377.87V399.88L559.115 377.87H551.865V414.64H557.075V388.02L564.265 414.64H570.205V377.87H565.065Z" fill="#231F20"></path><path d="M593.965 399.41H596.595V406.18C596.595 408.81 595.425 409.75 593.585 409.75C591.745 409.75 590.595 408.81 590.595 406.18V386.33C590.595 383.7 591.755 382.71 593.585 382.71C595.415 382.71 596.595 383.7 596.595 386.33V390.28H602.045V386.71C602.045 380.83 599.105 377.46 593.445 377.46C587.785 377.46 584.825 380.83 584.825 386.71V405.83C584.825 411.71 587.765 415.07 593.445 415.07C599.125 415.07 602.045 411.71 602.045 405.83V394.16H593.965V399.42V399.41Z" fill="#231F20"></path><path d="M616.725 377.87V414.64H632.485V409.39H622.505V398.61H630.445V393.37H622.505V383.13H632.485V377.87H616.725Z" fill="#231F20"></path><path d="M652.575 409.07H647.005V414.64H652.575V409.07Z" fill="#231F20"></path><path d="M673.285 409.07H667.715V414.64H673.285V409.07Z" fill="#231F20"></path><path d="M694.005 409.07H688.425V414.64H694.005V409.07Z" fill="#231F20"></path><path d="M749.875 377.87L746.885 407.07L743.995 377.87H738.425L735.635 406.88L732.535 377.87H726.915L731.005 414.64H738.945L741.045 395.04L743.145 414.64H750.815L754.915 377.87H749.875Z" fill="#231F20"></path><path d="M774.525 377.86H768.745V414.63H774.525V377.86Z" fill="#231F20"></path><path d="M789.675 377.87V414.64H804.955V409.39H795.445V377.87H789.675Z" fill="#231F20"></path><path d="M818.425 377.87V414.64H833.715V409.39H824.195V377.87H818.425Z" fill="#231F20"></path><path d="M879.235 377.87L874.815 394.64L870.405 377.87H864.365L871.675 402.46V414.64H877.455V402.46L884.755 377.87H879.235Z" fill="#231F20"></path><path d="M896.745 405.82C896.745 411.7 899.845 415.06 905.515 415.06C911.185 415.06 914.295 411.7 914.295 405.82V386.7C914.295 380.82 911.195 377.45 905.515 377.45C899.835 377.45 896.745 380.82 896.745 386.7V405.82ZM902.525 386.33C902.525 383.7 903.675 382.71 905.515 382.71C907.355 382.71 908.515 383.7 908.515 386.33V406.18C908.515 408.81 907.345 409.82 905.515 409.82C903.685 409.82 902.525 408.81 902.525 406.18V386.33Z" fill="#231F20"></path><path d="M928.705 377.87V405.87C928.705 411.74 931.645 415.12 937.315 415.12C942.985 415.12 945.935 411.74 945.935 405.87V377.87H940.465V406.25C940.465 408.86 939.315 409.82 937.475 409.82C935.635 409.82 934.485 408.86 934.485 406.25V377.87H928.705Z" fill="#231F20"></path><path d="M964.745 414.64H970.315V409.08H964.745V414.64ZM970.165 406.5C970.005 405.82 969.955 405.13 969.955 404.45C969.955 397.72 976.795 396.25 976.795 386.7C976.795 380.82 973.905 377.45 968.285 377.45C962.665 377.45 959.765 380.82 959.765 386.7V390.32H965.235V386.33C965.235 383.7 966.295 382.71 968.125 382.71C969.955 382.71 971.015 383.7 971.015 386.33C971.015 395.47 964.715 396.21 964.715 404.25C964.715 405.19 964.815 405.87 965.025 406.51H970.175H970.165V406.5Z" fill="#231F20"></path><path d="M59.7749 307.23C39.2649 307.23 35.0049 238.37 60.3549 238.37C85.7049 238.37 80.0849 307.23 59.7749 307.23ZM114.335 200.07C112.595 199.49 110.665 199.29 108.725 199.29C96.5349 199.29 82.4149 209.93 82.2249 235.86C76.0249 233.54 68.8649 232.18 60.5449 232.18C6.57489 232.18 -2.71511 287.12 32.3149 306.47C11.4149 315.76 7.73489 338.01 24.3749 346.51C41.4049 355.22 64.2349 350.78 82.7949 359.48C109.695 372.24 96.5349 403.78 61.3249 403.78C26.1149 403.78 29.9749 359.08 37.9149 358.52C33.0849 355.62 28.4449 354.25 23.9949 354.25C5.03489 354.25 -8.89511 377.46 6.77489 397.01C14.7049 406.88 30.9549 411.72 48.5649 411.72C76.4249 411.72 107.565 399.73 115.115 376.9C119.755 362.39 115.305 345.75 102.145 336.66C81.8249 322.53 43.1449 332.98 31.5349 321.18C28.6349 318.28 29.0149 311.89 35.9849 308.21C42.7549 311.11 50.8749 313.05 60.5449 313.05C114.915 313.05 123.995 257.14 88.0249 238.38C88.5949 231.61 90.5349 222.51 98.8549 222.51C102.145 222.91 105.825 228.31 102.925 234.11C105.045 234.7 106.975 234.89 108.915 234.89C128.455 234.89 133.675 205.67 114.335 200.07Z" fill="#231F20"></path><path d="M170.825 336.26C240.475 336.26 239.885 233.33 170.625 233.33C101.365 233.33 100.975 336.26 170.825 336.26ZM169.865 331.42C143.745 331.42 144.135 238.56 170.435 238.56C196.735 238.56 195.975 331.42 169.865 331.42Z" fill="#231F20"></path><path d="M288.065 319.24C288.065 329.68 290.575 333.75 302.185 333.75H319.985V258.29C322.685 254.42 331.975 245.71 339.135 245.71C341.265 245.71 343.205 246.49 344.755 248.43C346.875 251.13 345.905 257.52 339.715 259.65C343.585 266.61 349.585 269.32 355.195 269.32C366.615 269.32 377.255 258.28 372.225 244.56C368.935 236.04 360.625 232.57 352.095 232.57C339.515 232.57 328.105 240.88 319.795 250.55C319.795 239.73 316.505 237.21 305.485 237.21H288.075V319.24H288.065Z" fill="#231F20"></path><path d="M372.605 286.54C372.605 321.74 396.015 337.23 419.235 337.23C437.805 337.23 456.375 327.36 462.565 309.75L460.245 307.82C451.155 314.79 442.065 318.07 433.935 318.07C418.065 318.07 405.685 305.11 404.725 281.7H464.695C464.695 250.55 448.835 234.31 419.815 234.1C395.235 234.1 372.605 251.51 372.605 286.53M404.525 276.68C404.335 259.07 409.745 238.17 420.005 238.17C430.265 238.17 436.065 259.07 435.295 276.68H404.525Z" fill="#231F20"></path><path d="M496.425 188.06C486.555 188.06 478.435 196 478.435 206.06C478.435 216.12 486.555 223.87 496.425 223.87C506.295 223.87 514.405 215.93 514.405 206.06C514.405 196.19 506.475 188.06 496.425 188.06ZM480.365 318.84C480.365 329.09 483.065 332.96 494.495 332.96H512.675C512.675 285.56 512.475 293.5 512.475 246.1C512.095 239.51 509.775 236.61 499.335 236.61H480.375V318.83L480.365 318.84Z" fill="#231F20"></path><path d="M528.145 237.21V319.43C528.145 329.68 530.665 333.55 542.265 333.55H560.645V255.39C565.485 250.56 570.515 248.24 574.775 248.24C581.735 248.24 586.965 254.43 586.965 264.5V319.43C586.965 329.68 589.665 333.55 601.075 333.55H619.465V259.66C619.465 241.85 608.045 233.54 594.305 233.54C583.095 233.54 570.525 238.76 560.655 248.62V246.68C560.275 240.11 557.175 237.21 546.535 237.21H528.145Z" fill="#231F20"></path><path d="M664.725 333.55H679.045L720.635 237.01H714.835L686.395 303.57C675.755 278.42 671.115 267 660.475 241.85C659.125 238.76 656.215 237.01 653.315 237.01H623.335C630.105 251.92 657.755 318.46 664.725 333.55Z" fill="#231F20"></path><path d="M764.355 235.65C774.615 235.65 780.415 256.75 779.645 274.16H748.695C748.495 256.75 753.915 235.65 764.355 235.65ZM823.755 306.08V318.46C823.755 328.91 826.465 332.78 838.065 332.78H856.255V287.7C856.255 282.87 852.385 279 847.735 279C844.835 279 841.545 280.55 838.645 284.42C833.225 291.96 828.775 299.12 823.745 306.09M716.575 284.22C716.575 315.37 735.915 335.3 767.255 335.3C793.185 335.3 809.825 317.11 823.745 296.79C838.645 275.51 850.245 252.1 866.895 246.68C868.245 246.3 869.595 246.11 870.955 246.11C878.115 246.11 882.955 252.88 882.955 263.33V318.46C882.955 328.91 885.655 332.78 897.265 332.78H915.645V258.49C915.645 239.91 903.655 231.41 889.145 231.41C878.115 231.41 865.545 236.45 856.055 245.92L856.255 245.33C855.665 238.95 853.355 235.86 842.705 235.86H823.745V286.36C813.685 300.67 800.535 315.95 782.345 315.95C761.265 315.95 749.655 299.9 748.875 279.39H809.245C809.045 248.05 793.185 231.61 764.165 231.61C739.405 231.61 716.575 249.02 716.575 284.23" fill="#231F20"></path><path d="M924.355 241.66H944.665V318.66C944.665 329.1 947.185 332.97 958.795 332.97H976.785V241.66H999.995V236.62H976.785V190.96C976.405 184.59 974.085 181.49 963.425 181.49H944.665V236.62H924.355V241.66Z" fill="#231F20"></path><path d="M505.485 133.34C496.255 133.34 488.665 140.76 488.665 150.16C488.665 159.56 496.255 166.81 505.485 166.81C514.715 166.81 522.295 159.39 522.295 150.16C522.295 140.93 514.885 133.34 505.485 133.34Z" fill="white"></path><path d="M603.395 34.0298C586.525 34.0298 572.635 47.5998 572.635 64.7898C572.635 81.9798 586.525 95.2398 603.395 95.2398C620.265 95.2398 634.135 81.6698 634.135 64.7898C634.135 47.9098 620.585 34.0298 603.395 34.0298Z" fill="white"></path><path d="M456.235 149.17C456.295 149.6 456.325 150.03 456.395 150.46C456.565 152.79 457.355 154.99 457.845 157.31C458.155 158.45 458.665 159.52 459.035 160.66C459.435 161.78 459.805 162.98 460.295 163.84C461.955 167.75 464.325 171.33 467.355 174.41C473.325 180.6 481.815 185.1 491.075 186.11C494.385 186.48 497.765 186.42 501.135 185.98V227.78C497.525 228.37 493.855 228.72 490.185 228.83C471.135 229.42 451.805 223.06 436.225 211.04C428.415 205.07 421.615 197.6 416.345 189.2C414.885 187.11 413.835 185.06 412.725 182.99C411.645 180.91 410.465 178.86 409.515 176.71C407.725 172.35 405.765 168 404.565 163.38C403.135 158.74 402.065 154 401.335 149.18H456.235V149.17Z" fill="#ED1C24"></path><path d="M505.095 185.27C507.455 184.8 509.705 183.89 512.015 183.07L514.975 181.65C515.865 181.04 516.875 180.56 517.765 179.92C524.995 174.95 530.225 166.32 531.225 156.74C531.475 154.24 531.415 151.71 531.085 149.18H562.455C562.885 151.76 563.165 154.38 563.275 157.01C564.025 175.72 556.385 194.99 542.045 208.35C540.285 210.03 538.335 211.51 536.445 213.07C534.475 214.51 532.415 215.83 530.365 217.17C526.315 219.43 522.225 221.63 517.815 223.26C512.465 225.33 506.865 226.85 501.135 227.78V185.98C502.455 185.8 503.785 185.58 505.095 185.28" fill="#F7941C"></path><path d="M617.855 58.9297C614.635 58.9297 612.025 56.3198 612.025 53.0998C612.025 49.8798 614.635 47.2598 617.855 47.2598C621.075 47.2598 623.685 49.8698 623.685 53.0998C623.685 56.3298 621.075 58.9297 617.855 58.9297Z" fill="#231F20"></path><path d="M501.135 0C559.485 0 595.765 16.46 618.315 37.67C613.975 35.26 608.985 33.88 603.675 33.88C586.995 33.88 573.465 47.41 573.465 64.09C573.465 80.77 586.995 94.3 603.675 94.3C620.355 94.3 633.885 80.77 633.885 64.09C633.885 60.05 633.075 56.2 631.635 52.68C658.135 88.67 654.935 129.87 654.935 129.87H562.265C556.345 115.01 543.375 102.66 526.585 97.24C518.515 94.69 509.795 93.97 501.125 95.03V0.0100098H501.135V0Z" fill="#009445"></path><path d="M496.855 95.5699L493.535 96.4299C491.255 96.8399 489.105 97.6999 486.915 98.5099C484.515 99.2099 482.915 100.2 480.955 101.01C479.995 101.42 479.205 102.06 478.285 102.55C477.405 103.08 476.435 103.53 475.675 104.22C472.175 106.5 469.295 109.56 466.435 112.75C463.845 116.14 461.505 119.84 459.735 123.91C456.525 131.66 455.065 140.46 456.225 149.17H401.335C399.195 135.04 400.045 120.35 403.685 106.3C406.205 96.8899 410.055 87.8099 414.975 79.2299C420.155 70.8399 426.165 62.77 433.515 55.95C435.255 54.13 437.205 52.5699 439.135 50.9699C441.095 49.4099 442.985 47.7199 445.055 46.3199C449.185 43.5399 453.455 40.5699 457.595 38.5399C461.765 36.2799 465.965 34.0599 470.455 32.3799L477.125 29.7099L484.025 27.6199C489.615 25.9999 495.335 24.7899 501.125 23.9199V95.0299C500.835 95.0699 500.535 95.0899 500.245 95.1299L496.855 95.5799V95.5699Z" fill="#1C75BD"></path><path d="M529.475 142.31C527.845 137.58 525.585 133.84 521.975 130.68C518.515 127.49 513.975 125.37 509.145 124.35C506.545 123.9 503.835 123.78 501.135 124.04V101C504.555 100.47 508.035 100.28 511.515 100.43C520.695 100.98 529.895 103.83 537.755 109.13C545.675 114.18 552.235 122.11 556.275 130.28C559.265 136.14 561.355 142.54 562.445 149.15H531.085C530.785 146.84 530.255 144.54 529.475 142.29" fill="#8CC740"></path><path d="M481.625 156.96C482.705 159.25 484.275 161.32 486.265 163.01C490.145 166.37 495.685 168.12 501.135 167.4V178.38C493.515 179.81 485.255 178.26 478.495 173.88C474.735 171.47 471.445 168.21 468.965 164.41C466.565 160.66 464.805 156.67 463.705 152.34C463.455 151.3 463.255 150.24 463.085 149.18H479.425V149.32C479.715 151.92 480.515 154.6 481.605 156.97" fill="#F58A94"></path><path d="M496.725 136.95C493.715 138.07 491.175 140.49 489.895 143.6C489.175 145.32 488.875 147.24 488.985 149.17H488.385C488.025 147.21 488.075 145.15 488.625 143.18C489.575 139.59 492.145 136.33 495.575 134.54C497.275 133.56 499.165 132.91 501.125 132.6V135.96C499.645 136.05 498.155 136.37 496.725 136.96" fill="#26ABE0"></path><path d="M494.235 125.65C489.435 127.24 485.695 130.33 482.885 134.54C480.215 138.73 478.965 143.95 479.435 149.17H463.095C461.895 141.43 462.935 133.26 466.295 125.93C470.075 117.68 477.005 110.35 485.195 106.3C490.095 103.63 495.525 101.87 501.135 101.01V124.05C498.815 124.27 496.485 124.78 494.235 125.65Z" fill="#26ABE0"></path><path d="M513.395 141.59C510.775 137.88 505.965 135.67 501.135 135.96V132.6C506.875 131.67 513.225 133.57 517.455 138.12C520.305 141.2 522.135 145.06 522.915 149.17H516.175C515.875 146.47 514.985 143.82 513.395 141.59Z" fill="#D6DE24"></path><path d="M501.375 167.38C507.025 166.61 512.085 163.58 514.615 158.36C516.005 155.63 516.515 152.37 516.165 149.17H522.905C523.655 153.15 523.405 157.37 522.055 161.33C520.665 165.31 518.265 169.06 514.955 171.9C511.595 174.78 507.785 176.65 503.655 177.82C502.825 178.05 501.975 178.22 501.125 178.38V167.4C501.205 167.4 501.285 167.4 501.375 167.38Z" fill="#FFF200"></path></svg>